<svg xmlns="http://www.w3.org/2000/svg" viewBox="0 0 211.95 88.33"><defs><style>.cls-1,.cls-3{fill:none;stroke:#bc9646;stroke-miterlimit:10;}.cls-1{stroke-width:0.75px;}.cls-2{fill:#bc9646;}</style></defs><title>Logo</title><g id="Layer_2" data-name="Layer 2"><g id="Screen_Prefabs"><path class="cls-1" d="M13.53,21.87H9.75L6.38,14,5.22,10.71H4.87l.55,4.7v9.65h-5V.75H5.66l5.91,14,6-14h5.29V25.06h-5V15.38l.62-4.7H18l-1.16,3.39Z"/><path class="cls-1" d="M32.13,25.06h-5V.75h5Z"/><path class="cls-1" d="M51.12,18.33c-.07-.39-.14-.85-.22-1.39s-.16-1.06-.23-1.58-.13-1-.19-1.37-.08-.67-.08-.81V.75h5.05V25.06H50.06L42.64,12.29,41.16,9l-.34.07.65,4.16V25.06H36.39V.75h5L49.06,14l1.72,4.39Z"/><path class="cls-1" d="M64.75,25.06h-5V.75h5Z"/><path class="cls-1" d="M82.16,21.87H78.38L75,14l-1.17-3.33H73.5l.55,4.7v9.65H69V.75h5.28l5.91,14,6-14h5.29V25.06h-5V15.38l.62-4.7h-.38l-1.16,3.39Z"/><path class="cls-1" d="M115.56,25.06h-5.28l-2.13-5.56H100.9l-2,5.56H93.49L102,.75h4.84Zm-13.39-10.2h4.67L105.3,9.58l-.76-3.47h-.24l-.75,3.5Z"/><path class="cls-1" d="M117.48.75h5V20H133v5.08H117.48Z"/><path class="cls-1" d="M140.73,25.06h-5V.75h5Z"/><path class="cls-1" d="M147.56,17.85a5.18,5.18,0,0,0,2.27,2,7,7,0,0,0,2.86.71,4.7,4.7,0,0,0,2.51-.6A2.23,2.23,0,0,0,156.35,18a1.94,1.94,0,0,0-.34-1.28,2.91,2.91,0,0,0-1-.83,5.69,5.69,0,0,0-1.51-.5c-.58-.11-1.18-.21-1.8-.31a14.76,14.76,0,0,1-2.83-.68A7.76,7.76,0,0,1,146.38,13a6.6,6.6,0,0,1-1.75-2.26,7.43,7.43,0,0,1-.64-3.4,6.71,6.71,0,0,1,.89-3,7.43,7.43,0,0,1,2-2.2A9.1,9.1,0,0,1,149.66.82a11.33,11.33,0,0,1,3.19-.44,10.63,10.63,0,0,1,4.51,1,9,9,0,0,1,3.69,3.3L156.9,7.45a5,5,0,0,0-1.82-1.75,4.63,4.63,0,0,0-2.23-.55,6.06,6.06,0,0,0-1.37.14,4,4,0,0,0-1.17.42,2.44,2.44,0,0,0-.83.76,2.15,2.15,0,0,0-.34,1.08v0a1.88,1.88,0,0,0,.36,1.21,3.06,3.06,0,0,0,.94.74,5.55,5.55,0,0,0,1.34.44l1.55.33a25.56,25.56,0,0,1,3.07.79,8.27,8.27,0,0,1,2.65,1.39,6.52,6.52,0,0,1,1.82,2.31,7.56,7.56,0,0,1,.56,3.58,6.79,6.79,0,0,1-1,3,7.59,7.59,0,0,1-2.11,2.19,9.85,9.85,0,0,1-2.89,1.36,11.53,11.53,0,0,1-3.24.46,10.11,10.11,0,0,1-4.64-1.15,9.87,9.87,0,0,1-3.81-3.48Z"/><path class="cls-1" d="M174.92,5.8V25.06h-5.08V5.8h-7V.72h19V5.8Z"/><path class="cls-1" d="M189.59,25.06h-5.05V.75h5.05Z"/><path class="cls-1" d="M211.42,20.32a10.28,10.28,0,0,1-3.9,3.83,9.81,9.81,0,0,1-4.75,1.25,12.15,12.15,0,0,1-3.47-.51,10,10,0,0,1-3.07-1.51,7.44,7.44,0,0,1-2.18-2.51,7.22,7.22,0,0,1-.82-3.53V8.48A7.26,7.26,0,0,1,194,5a7.74,7.74,0,0,1,2.15-2.53,9.82,9.82,0,0,1,3-1.53,12.42,12.42,0,0,1,3.54-.51,9.89,9.89,0,0,1,2.44.31,9.29,9.29,0,0,1,2.37,1,9.41,9.41,0,0,1,2.07,1.63,8.53,8.53,0,0,1,1.57,2.32l-4.06,2.2a4.41,4.41,0,0,0-2-2,5.72,5.72,0,0,0-2.73-.6,5,5,0,0,0-1.56.24,4.78,4.78,0,0,0-1.32.65,3.09,3.09,0,0,0-.93,1,2.67,2.67,0,0,0-.34,1.36v8.86a2.73,2.73,0,0,0,.32,1.33,3.07,3.07,0,0,0,.9,1,4.15,4.15,0,0,0,1.3.64,5.19,5.19,0,0,0,1.53.22,6,6,0,0,0,2.71-.6,4.43,4.43,0,0,0,2.06-2Z"/><path class="cls-2" d="M38.71,73.44a4.51,4.51,0,0,0,.89,2.87A5.59,5.59,0,0,0,41.85,78a7.31,7.31,0,0,0,2.9.56A7.15,7.15,0,0,0,47.64,78a6.24,6.24,0,0,0,2.28-1.71,4.29,4.29,0,0,0,.92-2.84V45.29H61.66V73.44a13.7,13.7,0,0,1-5.32,11.18,16.73,16.73,0,0,1-5.41,2.78,20.85,20.85,0,0,1-6.18.93,21.16,21.16,0,0,1-6.22-.93,16.33,16.33,0,0,1-5.41-2.78A13.76,13.76,0,0,1,29.33,80a14.11,14.11,0,0,1-1.44-6.52V45.29H38.71Z"/><path class="cls-2" d="M78.69,87.61H68V45.29h10.7Z"/><path class="cls-3" d="M118.49,45.29h13.33L115.09,65.73l16.67,21.88H118.2L107.38,72.49,107,73V87.61H96.26V45.29H107V61Z"/><path class="cls-3" d="M145.21,87.61h-10.7V45.29h10.7Z"/><path class="cls-3" d="M171.45,55.39V87.61H160.63V55.39H149.39V45.23h33.29V55.39Z"/></g></g></svg>