<svg xmlns="http://www.w3.org/2000/svg" xmlns:xlink="http://www.w3.org/1999/xlink" viewBox="0 0 343 1080"><defs><style>.cls-1{fill:url(#linear-gradient);}</style><linearGradient id="linear-gradient" x1="171.5" x2="171.5" y2="1080" gradientUnits="userSpaceOnUse"><stop offset="0"/><stop offset="0.62" stop-opacity="0.99"/><stop offset="0.73" stop-opacity="0.99"/></linearGradient></defs><title>Banner</title><g id="Layer_2" data-name="Layer 2"><g id="Screen_Prefabs"><polygon class="cls-1" points="334.99 419.7 336.37 409.69 341.46 402.53 336.37 397.67 336.37 351.89 329.75 339.59 343 329.87 335.14 326.15 335.14 300.4 329.75 286.67 337.14 268.93 335.14 171.08 329.75 159.64 329.75 151.06 340.54 140.47 332.83 128.46 335.91 50.64 329.75 38.05 335.91 28.61 335.91 0 173.81 0 7.28 0 7.28 28.61 13.61 38.05 7.28 50.64 10.45 128.46 2.53 140.47 13.61 151.06 13.61 159.64 8.07 171.08 6.01 268.93 13.61 286.67 8.07 300.4 8.07 326.15 0 329.87 13.61 339.59 6.81 351.89 6.81 397.67 1.58 402.53 6.81 409.69 8.23 419.7 13.61 423.99 13.61 428.57 6.81 430.86 6.81 484.64 11.08 486.36 6.81 496.66 6.81 516.68 12.03 519.54 6.81 529.27 6.81 563.32 11.71 565.03 9.5 575.62 6.81 587.35 6.81 612.52 11.4 618.25 6.81 626.26 6.81 653.44 10.76 653.44 10.45 706.08 8.87 754.14 4.12 759.29 9.18 767.3 9.18 795.91 6.81 802.2 12.03 808.78 13.61 839.4 6.81 845.12 6.81 885.17 13.61 888.03 13.61 917.21 13.61 940.39 17.41 943.82 15.83 952.98 11.08 969.57 8.71 978.15 8.71 1080 173.81 1080 334.52 1080 334.52 978.15 332.21 969.57 327.59 952.98 326.05 943.82 329.75 940.39 329.75 917.21 329.75 888.03 336.37 885.17 336.37 845.12 329.75 839.4 331.29 808.78 336.37 802.2 334.06 795.91 334.06 767.3 338.99 759.29 334.37 754.14 332.83 706.08 332.52 653.44 336.37 653.44 336.37 626.26 331.91 618.25 336.37 612.52 336.37 587.35 333.75 575.62 331.6 565.03 336.37 563.32 336.37 529.27 331.29 519.54 336.37 516.68 336.37 496.66 332.21 486.36 336.37 484.64 336.37 430.86 329.75 428.57 329.75 423.99 334.99 419.7"/></g></g></svg>