<svg xmlns="http://www.w3.org/2000/svg" viewBox="0 0 65.84 62.16"><defs><style>.cls-1{fill:#f2f2f2;}</style></defs><title>Icon_Skill_White</title><g id="Layer_2" data-name="Layer 2"><g id="ATLAS"><path id="Icon" class="cls-1" d="M0,41C7.24,51.63,22.36,61.4,34.31,62.09c.82,0,1.65.07,2.49.07,7.54,0,15.91-1.9,25.48-5.78a.94.94,0,0,0,.55-.57c3.28-9.23,3.89-19.8,1.79-31.42A94.55,94.55,0,0,0,58.06,3.24,5.49,5.49,0,0,0,53,0L34.25.29a5.88,5.88,0,0,0-4.94,2.88c-1.16,2-1.82,4.7-.5,6.57l2.32,4.89c1.49,2.11,4.46,4,6.86,3L46.52,15a7.5,7.5,0,0,1-.88,4.9A26,26,0,0,0,42.3,32.21,23.56,23.56,0,0,0,38,29.82a20.16,20.16,0,0,0-9.67-1.57c-.73.06-1.42.16-2.08.28C22.79,19.4,16.37,16.61,11.53,15.9a23.32,23.32,0,0,0-10,.76,1,1,0,0,0,.62,1.82,22,22,0,0,1,9.17-.67c6.13.94,10.52,4.69,13.06,11.17a19.87,19.87,0,0,0-5.6,2.5,1,1,0,0,0,1.11,1.58,19.18,19.18,0,0,1,8.63-2.89,18.39,18.39,0,0,1,8.76,1.42c3.56,1.52,4.45,1.71,7.55,5.48a1,1,0,0,0,.74.35.94.94,0,0,0,.61-.22,1,1,0,0,0,.13-1.36c-1.45-1.76-.48-.82-2.05-2.13v-.15A23.94,23.94,0,0,1,47.33,20.8a9.31,9.31,0,0,0,1-6.58l3-1.21a1,1,0,0,0-.73-1.78L37.26,15.88c-1.56.64-3.58-1-4.56-2.37L30.38,8.63c-.88-1.25-.18-3.16.59-4.48a3.93,3.93,0,0,1,3.31-1.93L53,1.93A3.56,3.56,0,0,1,56.3,4a92.18,92.18,0,0,1,6.42,20.7c2,11.12,1.48,21.21-1.56,30-10.2,4.08-18.95,5.85-26.74,5.4a33.89,33.89,0,0,1-14.49-4c-4.86-2.66-14.54-10.71-18.18-16"/></g></g></svg>