<svg xmlns="http://www.w3.org/2000/svg" viewBox="0 0 37.33 29.29"><defs><style>.cls-1{fill:#bc9646;}</style></defs><title>Icon_Funds</title><g id="Layer_2" data-name="Layer 2"><g id="ATLAS"><path id="Icon" class="cls-1" d="M18.07,3V5.59C18.07,7,14,8.05,9,8.05S0,7,0,5.59V3C0,4.32,4.05,5.43,9,5.43S18.07,4.32,18.07,3Zm0-.5c0,1.37-4,2.47-9,2.47S0,3.83,0,2.46,4.05,0,9,0,18.07,1.1,18.07,2.46ZM9,8.73c-5,0-9-1.11-9-2.47V8.89c0,1.36,4.05,2.46,9,2.46s9-1.1,9-2.46V6.26C18.07,7.62,14,8.73,9,8.73ZM9,12c-5,0-9-1.1-9-2.46v2.63c0,1.36,4.05,2.46,9,2.46s9-1.1,9-2.46V9.58C18.07,10.94,14,12,9,12ZM9,15.3c-5,0-9-1.1-9-2.46v2.63c0,1.36,4.05,2.46,9,2.46s9-1.1,9-2.46V12.84C18.07,14.2,14,15.3,9,15.3Zm0,3.23c-5,0-9-1.11-9-2.47v2.63c0,1.36,4.05,2.46,9,2.46s9-1.1,9-2.46V16.06C18.07,17.42,14,18.53,9,18.53Zm0,3.21c-5,0-9-1.1-9-2.46v2.63c0,1.36,4.05,2.46,9,2.46s9-1.1,9-2.46V19.28C18.07,20.64,14,21.74,9,21.74Zm19.26-5c-5,0-9-1.1-9-2.47v2.63c0,1.36,4,2.47,9,2.47s9-1.11,9-2.47V14.31C37.34,15.68,33.29,16.78,28.3,16.78Zm0-5.43c5,0,9,1.11,9,2.47s-4,2.46-9,2.46-9-1.1-9-2.46S23.31,11.35,28.3,11.35Zm0,8.73c-5,0-9-1.11-9-2.47v2.63c0,1.36,4,2.47,9,2.47s9-1.11,9-2.47V17.61C37.34,19,33.29,20.08,28.3,20.08Zm0,3.32c-5,0-9-1.11-9-2.47v2.63c0,1.36,4,2.46,9,2.46s9-1.1,9-2.46V20.93C37.34,22.29,33.29,23.4,28.3,23.4Zm0,3.26c-5,0-9-1.11-9-2.47v2.63c0,1.36,4,2.47,9,2.47s9-1.11,9-2.47V24.19C37.34,25.55,33.29,26.66,28.3,26.66Z"/></g></g></svg>