<svg xmlns="http://www.w3.org/2000/svg" viewBox="0 0 21.91 24.5"><defs><style>.cls-1{fill:#bc9646;}</style></defs><title>Icon_Weight</title><g id="Layer_2" data-name="Layer 2"><g id="ATLAS"><path class="cls-1" d="M22.15,23.31a1.27,1.27,0,0,1-.26,1,1.2,1.2,0,0,1-.92.44H1.45a1.18,1.18,0,0,1-.92-.44,1.23,1.23,0,0,1-.26-1L2.8,8.8A1.21,1.21,0,0,1,4,7.79H8.2A4.45,4.45,0,0,1,6.92,4.65,4.35,4.35,0,0,1,11.21.25a4.36,4.36,0,0,1,4.29,4.4,4.45,4.45,0,0,1-1.28,3.14h4.21a1.2,1.2,0,0,1,1.18,1Zm-9-18.66a1.9,1.9,0,1,0-3.8,0,1.9,1.9,0,1,0,3.8,0Z" transform="translate(-0.25 -0.25)"/></g></g></svg>