<svg xmlns="http://www.w3.org/2000/svg" viewBox="0 0 72.34 72.34"><defs><style>.cls-1{fill:#f2f2f2;}</style></defs><title>Icon_Map_White</title><g id="Layer_2" data-name="Layer 2"><g id="ATLAS"><path id="Icon" class="cls-1" d="M71.16,34.53,48.73,27,56.9,16.91a.77.77,0,0,0-1.08-1.08L45.55,24.17l-7.73-23a1.74,1.74,0,0,0-3.3,0l-7.73,23L16.52,15.83a.77.77,0,0,0-1.08,1.08L23.61,27,1.18,34.53a1.74,1.74,0,0,0,0,3.29l22.93,7.71L15.44,56.21a.77.77,0,0,0,1.08,1.09L27,48.78l7.52,22.38a1.74,1.74,0,0,0,3.3,0l7.52-22.38L55.82,57.3a.77.77,0,0,0,1.08-1.09L48.23,45.53l22.93-7.71a1.74,1.74,0,0,0,0-3.29Zm-6,1.64H41.26l5.13-6.31Zm-29-29V31.79l-6.5-5.28Zm-29,29h23.9l.31.39-4.94,6.09Zm29,29V41.34l6.29,5.11Z"/></g></g></svg>