<svg xmlns="http://www.w3.org/2000/svg" viewBox="0 0 63.98 48.88"><defs><style>.cls-1{fill:#bc9646;}</style></defs><title>Icon_Book</title><g id="Layer_2" data-name="Layer 2"><g id="ATLAS"><g id="Icon"><path class="cls-1" d="M9.79,0h0A2.29,2.29,0,0,0,7.5,2.29V36.62a2.3,2.3,0,0,0,2.3,2.29c5.32,0,14.25,1.12,20.41,7.57V10.55a2.23,2.23,0,0,0-.31-1.16C24.84,1.25,15.13,0,9.79,0Z"/><path class="cls-1" d="M56.47,36.62V2.29A2.33,2.33,0,0,0,55.8.66,2.29,2.29,0,0,0,54.2,0h0c-5.34,0-15,1.25-20.11,9.39a2.14,2.14,0,0,0-.31,1.16V46.48c6.16-6.45,15.08-7.56,20.41-7.57A2.3,2.3,0,0,0,56.47,36.62Z"/><path class="cls-1" d="M61.69,7.92H60v28.7a5.86,5.86,0,0,1-5.84,5.84c-4.52,0-12,.9-17.25,5.89,9.13-2.23,18.75-.78,24.24.47A2.29,2.29,0,0,0,64,46.59V10.21A2.29,2.29,0,0,0,61.69,7.92Z"/><path class="cls-1" d="M4,36.62V7.92H2.29A2.29,2.29,0,0,0,0,10.21V46.59a2.29,2.29,0,0,0,2.8,2.23c5.49-1.25,15.11-2.7,24.24-.47-5.28-5-12.73-5.88-17.25-5.89A5.86,5.86,0,0,1,4,36.62Z"/></g></g></g></svg>