<svg xmlns="http://www.w3.org/2000/svg" viewBox="0 0 379.99 379.99"><defs><style>.cls-1{fill:none;stroke:#bc9646;stroke-miterlimit:10;stroke-width:0.25px;}</style></defs><title>Line_Elipse</title><g id="Layer_2" data-name="Layer 2"><g id="ATLAS"><g id="Line_Elipse"><line class="cls-1" x1="378.8" y1="211.13" x2="361.9" y2="209.26"/><line class="cls-1" x1="375.25" y1="232.14" x2="358.67" y2="228.38"/><line class="cls-1" x1="369.38" y1="252.63" x2="353.33" y2="247.02"/><line class="cls-1" x1="361.27" y1="272.34" x2="345.96" y2="264.96"/><line class="cls-1" x1="350.92" y1="290.96" x2="336.53" y2="281.92"/><line class="cls-1" x1="338.59" y1="308.33" x2="325.3" y2="297.74"/><line class="cls-1" x1="324.44" y1="324.25" x2="312.41" y2="312.24"/><line class="cls-1" x1="308.54" y1="338.43" x2="297.92" y2="325.15"/><line class="cls-1" x1="291.19" y1="350.78" x2="282.12" y2="336.4"/><line class="cls-1" x1="272.57" y1="361.16" x2="265.17" y2="345.85"/><line class="cls-1" x1="252.88" y1="369.3" x2="247.25" y2="353.25"/><line class="cls-1" x1="232.4" y1="375.19" x2="228.62" y2="358.62"/><line class="cls-1" x1="211.39" y1="378.77" x2="209.5" y2="361.87"/><line class="cls-1" x1="190.13" y1="379.99" x2="190.12" y2="362.99"/><line class="cls-1" x1="168.86" y1="378.8" x2="170.74" y2="361.9"/><line class="cls-1" x1="147.86" y1="375.25" x2="151.61" y2="358.67"/><line class="cls-1" x1="127.37" y1="369.38" x2="132.97" y2="353.33"/><line class="cls-1" x1="107.66" y1="361.27" x2="115.03" y2="345.96"/><line class="cls-1" x1="89.03" y1="350.92" x2="98.08" y2="336.53"/><line class="cls-1" x1="71.66" y1="338.59" x2="82.26" y2="325.3"/><line class="cls-1" x1="55.74" y1="324.44" x2="67.75" y2="312.41"/><line class="cls-1" x1="41.56" y1="308.54" x2="54.84" y2="297.92"/><line class="cls-1" x1="29.21" y1="291.19" x2="43.59" y2="282.12"/><line class="cls-1" x1="18.84" y1="272.57" x2="34.14" y2="265.17"/><line class="cls-1" x1="10.7" y1="252.88" x2="26.74" y2="247.25"/><line class="cls-1" x1="4.8" y1="232.4" x2="21.38" y2="228.62"/><line class="cls-1" x1="1.23" y1="211.39" x2="18.12" y2="209.5"/><line class="cls-1" y1="190.13" x2="17" y2="190.12"/><line class="cls-1" x1="1.19" y1="168.86" x2="18.09" y2="170.74"/><line class="cls-1" x1="4.75" y1="147.86" x2="21.32" y2="151.61"/><line class="cls-1" x1="10.61" y1="127.37" x2="26.66" y2="132.97"/><line class="cls-1" x1="18.72" y1="107.66" x2="34.04" y2="115.03"/><line class="cls-1" x1="29.07" y1="89.03" x2="43.46" y2="98.08"/><line class="cls-1" x1="41.4" y1="71.66" x2="54.69" y2="82.26"/><line class="cls-1" x1="55.56" y1="55.74" x2="67.59" y2="67.75"/><line class="cls-1" x1="71.45" y1="41.56" x2="82.07" y2="54.84"/><line class="cls-1" x1="88.81" y1="29.21" x2="97.88" y2="43.59"/><line class="cls-1" x1="107.42" y1="18.84" x2="114.82" y2="34.14"/><line class="cls-1" x1="127.12" y1="10.7" x2="132.74" y2="26.74"/><line class="cls-1" x1="147.6" y1="4.8" x2="151.38" y2="21.38"/><line class="cls-1" x1="168.6" y1="1.23" x2="170.5" y2="18.12"/><line class="cls-1" x1="189.87" x2="189.88" y2="17"/><line class="cls-1" x1="211.13" y1="1.19" x2="209.26" y2="18.09"/><line class="cls-1" x1="232.14" y1="4.74" x2="228.38" y2="21.32"/><line class="cls-1" x1="252.63" y1="10.61" x2="247.02" y2="26.66"/><line class="cls-1" x1="272.34" y1="18.72" x2="264.96" y2="34.04"/><line class="cls-1" x1="290.96" y1="29.07" x2="281.92" y2="43.46"/><line class="cls-1" x1="308.33" y1="41.4" x2="297.74" y2="54.69"/><line class="cls-1" x1="324.25" y1="55.56" x2="312.24" y2="67.58"/><line class="cls-1" x1="338.43" y1="71.45" x2="325.15" y2="82.07"/><line class="cls-1" x1="350.78" y1="88.81" x2="336.4" y2="97.88"/><line class="cls-1" x1="361.16" y1="107.42" x2="345.85" y2="114.82"/><line class="cls-1" x1="369.3" y1="127.12" x2="353.25" y2="132.74"/><line class="cls-1" x1="375.19" y1="147.6" x2="358.62" y2="151.38"/><line class="cls-1" x1="378.77" y1="168.6" x2="361.87" y2="170.5"/><line class="cls-1" x1="379.99" y1="189.87" x2="362.99" y2="189.88"/></g></g></g></svg>