<svg xmlns="http://www.w3.org/2000/svg" xmlns:xlink="http://www.w3.org/1999/xlink" viewBox="0 0 127.15 127.15"><defs><style>.cls-1{fill:none;}.cls-2{fill:#b3b3b3;opacity:0.5;}.cls-3{clip-path:url(#clip-path);}.cls-4{clip-path:url(#clip-path-2);}.cls-5{clip-path:url(#clip-path-3);}.cls-6{clip-path:url(#clip-path-4);}.cls-7{clip-path:url(#clip-path-5);}.cls-8{clip-path:url(#clip-path-6);}.cls-9{clip-path:url(#clip-path-7);}.cls-10{clip-path:url(#clip-path-8);}</style><clipPath id="clip-path" transform="translate(-1.08 -1.08)"><polygon class="cls-1" points="64.66 4.34 64.66 0 62.49 2.17 64.66 4.34"/></clipPath><clipPath id="clip-path-2" transform="translate(-1.08 -1.08)"><polygon class="cls-1" points="64.66 4.34 64.66 0 66.83 2.17 64.66 4.34"/></clipPath><clipPath id="clip-path-3" transform="translate(-1.08 -1.08)"><polygon class="cls-1" points="124.98 64.66 129.32 64.66 127.15 62.49 124.98 64.66"/></clipPath><clipPath id="clip-path-4" transform="translate(-1.08 -1.08)"><polygon class="cls-1" points="124.98 64.66 129.32 64.66 127.15 66.83 124.98 64.66"/></clipPath><clipPath id="clip-path-5" transform="translate(-1.08 -1.08)"><polygon class="cls-1" points="64.66 124.98 64.66 129.32 66.83 127.15 64.66 124.98"/></clipPath><clipPath id="clip-path-6" transform="translate(-1.08 -1.08)"><polygon class="cls-1" points="64.66 124.98 64.66 129.32 62.49 127.15 64.66 124.98"/></clipPath><clipPath id="clip-path-7" transform="translate(-1.08 -1.08)"><polygon class="cls-1" points="4.34 64.66 0 64.66 2.17 66.83 4.34 64.66"/></clipPath><clipPath id="clip-path-8" transform="translate(-1.08 -1.08)"><polygon class="cls-1" points="4.34 64.66 0 64.66 2.17 62.49 4.34 64.66"/></clipPath></defs><title>Square_Pattern</title><g id="Layer_2" data-name="Layer 2"><g id="ATLAS"><g id="Box"><polygon class="cls-2" points="7.41 59.41 5.29 59.37 5.24 57.25 7.37 57.29 7.41 59.41"/><polygon class="cls-2" points="12.61 54.21 10.49 54.17 10.44 52.05 12.57 52.09 12.61 54.21"/><polygon class="cls-2" points="17.81 49.01 15.69 48.97 15.64 46.85 17.77 46.89 17.81 49.01"/><polygon class="cls-2" points="23.01 43.81 20.89 43.77 20.84 41.65 22.97 41.69 23.01 43.81"/><polygon class="cls-2" points="28.21 38.61 26.09 38.57 26.05 36.45 28.17 36.49 28.21 38.61"/><polygon class="cls-2" points="33.41 33.41 31.29 33.37 31.25 31.25 33.37 31.29 33.41 33.41"/><polygon class="cls-2" points="38.61 28.21 36.49 28.17 36.45 26.05 38.57 26.09 38.61 28.21"/><polygon class="cls-2" points="43.81 23.01 41.69 22.97 41.65 20.84 43.77 20.89 43.81 23.01"/><polygon class="cls-2" points="49.01 17.81 46.89 17.77 46.85 15.64 48.97 15.69 49.01 17.81"/><polygon class="cls-2" points="54.21 12.61 52.09 12.57 52.05 10.45 54.17 10.49 54.21 12.61"/><polygon class="cls-2" points="59.41 7.41 57.29 7.37 57.25 5.24 59.37 5.29 59.41 7.41"/><polygon class="cls-2" points="67.73 7.41 67.78 5.29 69.9 5.24 69.86 7.37 67.73 7.41"/><polygon class="cls-2" points="72.94 12.61 72.98 10.49 75.1 10.45 75.06 12.57 72.94 12.61"/><polygon class="cls-2" points="78.14 17.81 78.18 15.69 80.3 15.64 80.26 17.77 78.14 17.81"/><polygon class="cls-2" points="83.33 23.01 83.38 20.89 85.5 20.84 85.46 22.97 83.33 23.01"/><polygon class="cls-2" points="88.54 28.21 88.58 26.09 90.7 26.05 90.66 28.17 88.54 28.21"/><polygon class="cls-2" points="93.74 33.41 93.78 31.29 95.9 31.25 95.86 33.37 93.74 33.41"/><polygon class="cls-2" points="98.94 38.61 98.98 36.49 101.1 36.45 101.06 38.57 98.94 38.61"/><polygon class="cls-2" points="104.14 43.81 104.18 41.69 106.31 41.65 106.26 43.77 104.14 43.81"/><polygon class="cls-2" points="109.34 49.01 109.38 46.89 111.5 46.85 111.46 48.97 109.34 49.01"/><polygon class="cls-2" points="114.54 54.21 114.58 52.09 116.7 52.05 116.66 54.17 114.54 54.21"/><polygon class="cls-2" points="119.74 59.41 119.78 57.29 121.91 57.25 121.86 59.37 119.74 59.41"/><polygon class="cls-2" points="119.74 67.73 121.86 67.78 121.91 69.9 119.78 69.86 119.74 67.73"/><polygon class="cls-2" points="114.54 72.94 116.66 72.98 116.7 75.1 114.58 75.06 114.54 72.94"/><polygon class="cls-2" points="109.34 78.14 111.46 78.18 111.5 80.3 109.38 80.26 109.34 78.14"/><polygon class="cls-2" points="104.14 83.33 106.26 83.38 106.31 85.5 104.18 85.46 104.14 83.33"/><polygon class="cls-2" points="98.94 88.54 101.06 88.58 101.1 90.7 98.98 90.66 98.94 88.54"/><polygon class="cls-2" points="93.74 93.74 95.86 93.78 95.9 95.9 93.78 95.86 93.74 93.74"/><polygon class="cls-2" points="88.54 98.94 90.66 98.98 90.7 101.1 88.58 101.06 88.54 98.94"/><polygon class="cls-2" points="83.33 104.14 85.46 104.18 85.5 106.31 83.38 106.26 83.33 104.14"/><polygon class="cls-2" points="78.14 109.34 80.26 109.38 80.3 111.5 78.18 111.46 78.14 109.34"/><polygon class="cls-2" points="72.94 114.54 75.06 114.58 75.1 116.7 72.98 116.66 72.94 114.54"/><polygon class="cls-2" points="67.73 119.74 69.86 119.78 69.9 121.91 67.78 121.86 67.73 119.74"/><polygon class="cls-2" points="59.41 119.74 59.37 121.86 57.25 121.91 57.29 119.78 59.41 119.74"/><polygon class="cls-2" points="54.21 114.54 54.17 116.66 52.05 116.7 52.09 114.58 54.21 114.54"/><polygon class="cls-2" points="49.01 109.34 48.97 111.46 46.85 111.5 46.89 109.38 49.01 109.34"/><polygon class="cls-2" points="43.81 104.14 43.77 106.26 41.65 106.31 41.69 104.18 43.81 104.14"/><polygon class="cls-2" points="38.61 98.94 38.57 101.06 36.45 101.1 36.49 98.98 38.61 98.94"/><polygon class="cls-2" points="33.41 93.74 33.37 95.86 31.25 95.9 31.29 93.78 33.41 93.74"/><polygon class="cls-2" points="28.21 88.54 28.17 90.66 26.05 90.7 26.09 88.58 28.21 88.54"/><polygon class="cls-2" points="23.01 83.33 22.97 85.46 20.84 85.5 20.89 83.38 23.01 83.33"/><polygon class="cls-2" points="17.81 78.14 17.77 80.26 15.64 80.3 15.69 78.18 17.81 78.14"/><polygon class="cls-2" points="12.61 72.94 12.57 75.06 10.44 75.1 10.49 72.98 12.61 72.94"/><polygon class="cls-2" points="7.41 67.73 7.37 69.86 5.24 69.9 5.29 67.78 7.41 67.73"/><g class="cls-3"><rect class="cls-2" x="62.49" width="2.17" height="2.17"/></g><g class="cls-4"><rect class="cls-2" x="62.49" width="2.17" height="2.17"/></g><g class="cls-5"><rect class="cls-2" x="124.98" y="62.49" width="2.17" height="2.17"/></g><g class="cls-6"><rect class="cls-2" x="124.98" y="62.49" width="2.17" height="2.17"/></g><g class="cls-7"><rect class="cls-2" x="62.49" y="124.98" width="2.17" height="2.17"/></g><g class="cls-8"><rect class="cls-2" x="62.49" y="124.98" width="2.17" height="2.17"/></g><g class="cls-9"><rect class="cls-2" y="62.49" width="2.17" height="2.17"/></g><g class="cls-10"><rect class="cls-2" y="62.49" width="2.17" height="2.17"/></g></g></g></g></svg>