<svg xmlns="http://www.w3.org/2000/svg" viewBox="0 0 218.84 6.13"><defs><style>.cls-1{fill:#b3b3b3;opacity:0.5;}</style></defs><title>Square_Pattern_1</title><g id="Layer_2" data-name="Layer 2"><g id="ATLAS"><polygon class="cls-1" points="3.04 6.13 0 3.07 3.04 0 6.08 3.07 3.04 6.13"/><polygon class="cls-1" points="18.24 6.13 15.2 3.07 18.24 0 21.28 3.07 18.24 6.13"/><polygon class="cls-1" points="33.43 6.13 30.39 3.07 33.43 0 36.47 3.07 33.43 6.13"/><polygon class="cls-1" points="48.63 6.13 45.59 3.07 48.63 0 51.67 3.07 48.63 6.13"/><polygon class="cls-1" points="63.83 6.13 60.79 3.07 63.83 0 66.87 3.07 63.83 6.13"/><polygon class="cls-1" points="79.03 6.13 75.99 3.07 79.03 0 82.07 3.07 79.03 6.13"/><polygon class="cls-1" points="94.22 6.13 91.19 3.07 94.22 0 97.26 3.07 94.22 6.13"/><polygon class="cls-1" points="109.42 6.13 106.38 3.07 109.42 0 112.46 3.07 109.42 6.13"/><polygon class="cls-1" points="124.62 6.13 121.58 3.07 124.62 0 127.66 3.07 124.62 6.13"/><polygon class="cls-1" points="139.82 6.13 136.78 3.07 139.82 0 142.85 3.07 139.82 6.13"/><polygon class="cls-1" points="155.01 6.13 151.97 3.07 155.01 0 158.05 3.07 155.01 6.13"/><polygon class="cls-1" points="170.21 6.13 167.17 3.07 170.21 0 173.25 3.07 170.21 6.13"/><polygon class="cls-1" points="185.41 6.13 182.37 3.07 185.41 0 188.45 3.07 185.41 6.13"/><polygon class="cls-1" points="200.61 6.13 197.57 3.07 200.61 0 203.65 3.07 200.61 6.13"/><polygon class="cls-1" points="215.8 6.13 212.76 3.07 215.8 0 218.84 3.07 215.8 6.13"/></g></g></svg>