<svg xmlns="http://www.w3.org/2000/svg" xmlns:xlink="http://www.w3.org/1999/xlink" viewBox="0 0 209.93 212.01"><defs><style>.cls-1{fill:url(#radial-gradient);}.cls-2{fill:none;stroke:#bc9646;stroke-miterlimit:10;}</style><radialGradient id="radial-gradient" cx="104.95" cy="105.82" r="95.04" gradientTransform="translate(0 -105.82) scale(1 2)" gradientUnits="userSpaceOnUse"><stop offset="0" stop-color="#333"/><stop offset="1" stop-color="#222122"/></radialGradient></defs><title>Button_CharacterMenu</title><g id="Layer_2" data-name="Layer 2"><g id="Screen_Prefabs"><rect class="cls-1" x="9.92" y="10.79" width="190.07" height="190.07"/><rect class="cls-2" x="1.12" y="1.87" width="8.81" height="8.81"/><polygon class="cls-2" points="9.93 10.68 9.93 201.37 200 201.37 200 210.18 208.81 210.18 208.81 201.37 200.62 201.37 200.62 10.68 9.93 10.68"/><rect class="cls-2" x="200.62" y="1.87" width="8.81" height="8.81"/><rect class="cls-2" x="0.5" y="201.37" width="8.81" height="8.81"/><polyline class="cls-2" points="16.42 6.27 99.44 6.27 105 0.71 110.57 6.27 193.42 6.27"/><polyline class="cls-2" points="194.66 205.78 109.82 205.78 103.34 211.34 97.42 205.78 17.66 205.78"/><line class="cls-2" x1="205.03" y1="196.56" x2="205.03" y2="15.06"/><line class="cls-2" x1="5.52" y1="196.2" x2="5.52" y2="14.7"/></g></g></svg>