<svg xmlns="http://www.w3.org/2000/svg" viewBox="0 0 67.9 59.29"><defs><style>.cls-1{fill:#b48f45;}</style></defs><title>Icon_Chest</title><g id="Layer_2" data-name="Layer 2"><g id="Screen_Prefabs"><path class="cls-1" d="M68.14,49.48v9.21a.85.85,0,0,1-.85.85H59.73a.85.85,0,0,1-.86-.85V57.46H9.52v1.23a.85.85,0,0,1-.85.85H1.1a.85.85,0,0,1-.85-.85V49.48a.85.85,0,0,1,.85-.85H3.52V1.1A.85.85,0,0,1,4.37.25h7.12a.85.85,0,0,1,.85.85V3.22H29.92V1.1a.85.85,0,0,1,.85-.85h7.12a.86.86,0,0,1,.86.85V3.22H56.32V1.1a.85.85,0,0,1,.85-.85H64.3a.85.85,0,0,1,.85.85V48.63h2.14A.85.85,0,0,1,68.14,49.48Zm-1.7,8.35V50.34H60.58v7.49Zm-3-9.2V23.92H58V48.63h5.42Zm0-26.42V2H58V22.21ZM58.87,55.75V50.34H9.52v5.41Zm-2.55-7.12V28.52H41.19A7.68,7.68,0,1,1,26.65,32a7.57,7.57,0,0,1,.83-3.45H12.34V48.63Zm0-21.81v-2.9H36.79v.78A7.66,7.66,0,0,1,40,26.82Zm0-4.61V19.32H38.75v2.89Zm0-4.6V4.92H38.75V17.61ZM40.31,32a6,6,0,1,0-6,6A6,6,0,0,0,40.31,32ZM37,22.21V2H31.62V22.21Zm-2,2.12v-.41h-1.5v.41c.25,0,.5,0,.75,0S34.84,24.31,35.08,24.33Zm-3.21.37v-.78H12.34v2.9H28.65A7.57,7.57,0,0,1,31.87,24.7Zm-1.95-2.49V19.32H12.34v2.89Zm0-4.6V4.92H12.34V17.61Zm-19.28,31V23.92H5.22V48.63Zm0-26.42V2H5.22V22.21ZM7.82,57.83V50.34H2v7.49Z" transform="translate(-0.25 -0.25)"/></g></g></svg>