<svg xmlns="http://www.w3.org/2000/svg" viewBox="0 0 30.25 30.25"><defs><style>.cls-1{fill:#222122;}.cls-2{fill:none;stroke:#222122;stroke-miterlimit:10;}.cls-3{fill:#d73125;}</style></defs><title>Xobx_B</title><g id="Layer_2" data-name="Layer 2"><g id="Screen_Prefabs"><circle class="cls-1" cx="15.12" cy="15.13" r="12.87"/><circle class="cls-2" cx="15.12" cy="15.13" r="14.63"/><path class="cls-3" d="M20.71,11.88a4.18,4.18,0,0,1-.32,1.55,2.7,2.7,0,0,1-1.05,1.27A3,3,0,0,1,21,16.17a3.68,3.68,0,0,1,.32,1,5.52,5.52,0,0,1,.1,1.09A5.09,5.09,0,0,1,21,20.31a3.72,3.72,0,0,1-1.11,1.36,4.46,4.46,0,0,1-1.63.76,8.79,8.79,0,0,1-2,.23H10.4V7.79h5.79A5.76,5.76,0,0,1,17.93,8a4,4,0,0,1,1.44.77,3.56,3.56,0,0,1,1,1.28A4.17,4.17,0,0,1,20.71,11.88Zm-4.52,1.83a2.51,2.51,0,0,0,1.52-.44,1.69,1.69,0,0,0,.6-1.47,1.4,1.4,0,0,0-.62-1.27,2.67,2.67,0,0,0-1.5-.41H12.83v3.59Zm0,6.62a3.34,3.34,0,0,0,2-.47,1.88,1.88,0,0,0,.78-1.72,2,2,0,0,0-.74-1.74,3.3,3.3,0,0,0-2-.5H12.83v4.43Z"/></g></g></svg>