<svg xmlns="http://www.w3.org/2000/svg" viewBox="0 0 7.72 483"><defs><style>.cls-1{fill:#5c5042;}</style></defs><title>Slider_Scroll</title><g id="Layer_2" data-name="Layer 2"><g id="Screen_Prefabs"><path class="cls-1" d="M6.29,482.88c0,.15.39.1.46.12C6.66,482.75,6.18,482.89,6.29,482.88Z"/><polygon class="cls-1" points="5.34 480.41 5.51 480.46 5.09 480.09 5.34 480.41"/><path class="cls-1" d="M5.35,478.1c-.71.22.11.84-.14,1.25l-.16.07.57.18C5.53,479.1,5.15,478.46,5.35,478.1Z"/><path class="cls-1" d="M6.89,476.87c-.27.08-.24-.26-.08.29a.15.15,0,0,1,.07-.05A.68.68,0,0,1,6.89,476.87Z"/><path class="cls-1" d="M6.88,477.11c0,.24.23-.16,0,0Z"/><path class="cls-1" d="M6.72,476l.25.32c.16-.06.2-.35.32-.24C7.15,475.73,7,475.8,6.72,476Z"/><path class="cls-1" d="M6.2,475.68l.1.17C6.37,475.82,6.4,475.77,6.2,475.68Z"/><path class="cls-1" d="M6.52,476.2l-.22-.35c-.11,0-.34,0,.08.16C6.17,476,6.37,476.05,6.52,476.2Z"/><path class="cls-1" d="M6.41,476.4c-.15.18-.25.41-.5.09C6,477.1,6.51,477,6.41,476.4Z"/><path class="cls-1" d="M4.61,478l-.21.24.24.2C4.52,478.33,4.83,478,4.61,478Z"/><path class="cls-1" d="M7.09,474a4.09,4.09,0,0,0-.6.13l.17.24C6.77,474.24,6.86,474,7.09,474Z"/><path class="cls-1" d="M6.49,474.12l-.26-.35C6.2,474.08,6.32,474.14,6.49,474.12Z"/><polygon class="cls-1" points="5.41 475.62 5.95 476.2 5.4 475.51 5.41 475.62"/><polygon class="cls-1" points="7.11 472.64 7.46 472.84 6.93 472.48 7.11 472.64"/><path class="cls-1" d="M7,471.74c.3.15.5-.2.68-.05a1.51,1.51,0,0,0-.53-.64C7.32,471.25,7.28,471.47,7,471.74Z"/><path class="cls-1" d="M6.86,470.74a2,2,0,0,0,.33.31A1,1,0,0,0,6.86,470.74Z"/><path class="cls-1" d="M6.3,473.16a.65.65,0,0,0,.44-.28l-.43.14Z"/><path class="cls-1" d="M6.3,473h0l0-.3S6.32,472.85,6.3,473Z"/><path class="cls-1" d="M6.3,473.2v0S6.25,473.18,6.3,473.2Z"/><path class="cls-1" d="M5.79,474.7c-.24-.21-.49-.65-.86-.23C5.22,474.62,5.43,474.38,5.79,474.7Z"/><path class="cls-1" d="M5.77,473.37l-.1.38c.11,0,.28-.08.39,0Z"/><polygon class="cls-1" points="5.63 473.19 5.77 473.37 5.8 473.23 5.63 473.19"/><path class="cls-1" d="M6.46,471.38a.78.78,0,0,1-.23-.54,1.93,1.93,0,0,0-.13.65C6.24,471.52,6.48,471.61,6.46,471.38Z"/><path class="cls-1" d="M6.34,472.18l0,0S6.27,472.19,6.34,472.18Z"/><path class="cls-1" d="M6.23,468.87l-.07,0h.07Z"/><path class="cls-1" d="M6,471.53c-.08.16,0,.26.16.35a1.23,1.23,0,0,1-.08-.39C6,471.48,6,471.48,6,471.53Z"/><path class="cls-1" d="M6.66,470.19a1.56,1.56,0,0,0-.23.28C6.56,470.39,6.77,470.22,6.66,470.19Z"/><path class="cls-1" d="M6.44,472.09l0,0C6.55,472.06,6.5,472.07,6.44,472.09Z"/><path class="cls-1" d="M6.44,472.09a1.09,1.09,0,0,0-.26-.21.87.87,0,0,0,.14.27Z"/><path class="cls-1" d="M3.49,468.27c.4,0,.76.45.34.82.3.36,1.6.12,2.33-.19-.18,0-.34,0-.57-.38-.22.13-.51.82-.86.51-.21-.49.14-.41.34-.65-.49.21-.71-.62-1.44-.51l.26.43C3.77,468.31,3.59,468.15,3.49,468.27Z"/><path class="cls-1" d="M6.12,469.61l0,.15c.07-.17.23-.3.54-.53a.65.65,0,0,0-.47-.32l-.06.75Z"/><path class="cls-1" d="M6.17,470.45c-.43-.12-.62-.49-1.08-.27,0,.45.36.32.54.59-.1-.73.24.21.49-.32a1.29,1.29,0,0,1,.11.39,1.9,1.9,0,0,1,.2-.37l0,0h0c-.06,0-.09,0-.06,0h0l-.16,0c.09-.21.11,0,.16,0H6.4l-.24-.73A1.44,1.44,0,0,0,6.17,470.45Z"/><path class="cls-1" d="M4,474.09a.14.14,0,0,1,.1,0S4,474,4,474.09Z"/><path class="cls-1" d="M4.26,473.79c.06,0,.24.09.19.27s-.2,0-.35,0c.12.11.31.36.52,0l-.06-.05c.15-.29.69-.67.75-.62A4,4,0,0,0,4.26,473.79Z"/><path class="cls-1" d="M5.11,472.1l-.22-.61-.37.31.23,0C4.66,472.13,4.93,472.05,5.11,472.1Z"/><polygon class="cls-1" points="6.45 468.8 6.9 468.88 6.26 468.53 6.45 468.8"/><polygon class="cls-1" points="6.39 468.01 6.79 468.04 6.55 467.83 6.39 468.01"/><path class="cls-1" d="M1.48,398.6l-.11-1.68C1.41,397.71,1.44,398.22,1.48,398.6Z"/><path class="cls-1" d="M1.46,410.78l.19.3C1.54,410.52,1.46,410.29,1.46,410.78Z"/><path class="cls-1" d="M6.35,448.74c.37-.26.94-.55.5-.52l-.44.08A.4.4,0,0,1,6.35,448.74Z"/><path class="cls-1" d="M3.76,435.53l-.13.08.41.17Z"/><path class="cls-1" d="M2,435.35l.28-.34A1.45,1.45,0,0,0,2,435.35Z"/><path class="cls-1" d="M1,332.06l-.44-2C.58,333.17.81,331.82,1,332.06Z"/><path class="cls-1" d="M6.23,460a1.31,1.31,0,0,0,.27-.55C6.25,459.69,5.87,459.9,6.23,460Z"/><path class="cls-1" d="M6.09,403.39c-.08-1-.17-1.47-.27-1.44C5.9,403,6,403.61,6.09,403.39Z"/><path class="cls-1" d="M6.49,458.77l-.1.12a1,1,0,0,1,.11.53C6.68,459.22,6.8,459,6.49,458.77Z"/><path class="cls-1" d="M1.38,90.74c0-.17,0-.38.05-.54S1.37,90.39,1.38,90.74Z"/><path class="cls-1" d="M5.76,20.44c0,.69,0,1.82,0,2.89C5.82,22.81,5.82,21.94,5.76,20.44Z"/><path class="cls-1" d="M6.58,464.86c0,.16,0,0,0,0Z"/><path class="cls-1" d="M4.87,465.66a.37.37,0,0,0-.21-.06A.59.59,0,0,1,4.87,465.66Z"/><path class="cls-1" d="M3.79,457.12v0C3.71,457.15,3.73,457.14,3.79,457.12Z"/><path class="cls-1" d="M6.39,465.11a.94.94,0,0,0,.12-.22A1,1,0,0,0,6.39,465.11Z"/><path class="cls-1" d="M6.59,465.07l0,.15C6.62,465.24,6.67,465.22,6.59,465.07Z"/><path class="cls-1" d="M6.56,464.62a.49.49,0,0,1,0,.27s.06,0,.07,0S6.57,464.74,6.56,464.62Z"/><path class="cls-1" d="M2.54,220a3.18,3.18,0,0,0,0-.34C2.4,218.11,2.43,218.81,2.54,220Z"/><path class="cls-1" d="M1.84,444.4l0,0,0,0Z"/><path class="cls-1" d="M1.52,443.81c.54.25.47.39.36.59l1.25-.2Z"/><path class="cls-1" d="M1.36,369.43l-.39,4c-.64-4.81-.42-8.28-1-4.55,1.36.57.14,15.48,1.5,16l-.29,2.63c0-.75-.07-.87-.05-1.62-.65,5.11,1,3.79.79,10.37-.11,2.29-.3,3.89-.47,2.33l.34,5.11c0,1.48-.26,1.12-.24-.36l.11,7.79,0-.06c.21,1.11.54,3.63.68,4.86-.19,2-.14-1-.31-.49l.33,4.32C2,421.52,1.66,418,1.71,415a8.35,8.35,0,0,0-.44,4.39c.08.74.17,1.62.2,2.86,0,.63,0,1.34,0,2.16,0,.42-.05.86-.07,1.34,0,.23,0,.48-.06.73v.2c0,.07,0,0,0,.05l0,0,0-.05,0-.47,0-1-.09-2a13.33,13.33,0,0,0-.41,2.09c0,.37-.08.75-.11,1.14l0,.28,0,0,0,.06a1.84,1.84,0,0,1-.38.63c.25-.12,1.21-1,1.55-.48-.1.14-.15.32.12.59-.48,0-.36.26-.33.59l-.64,0c.18.36.51.33.79.54-.06.39-.55.47-1,.56-.1.63.79-.43.91.31-.24.52,0,.89.4,1.51-.22.37-.39-.06-.57.07l.51.33c0,.08-.17.05-.25,0,.2.27.64,0,.81.45.71.11-1,.88-.23,1.41-.18.13-.39-.06-.64,0a4.22,4.22,0,0,0,1.09,1.22l-.42.51c.48-.37,1,.1,1.52.52a5.1,5.1,0,0,0,.53-.32l.34.67c-.1.08-.32,0-.59-.1l.16.13c-.24.24-.61.11-1-.06l.4-.24a2.68,2.68,0,0,0-1.2-.29.49.49,0,0,1,.18.22.49.49,0,0,0-.27-.05c-.06,0,.08.09.24.2l-.71.16.28,0-.45.88c.72.62,1.78,1.17,2.07,2.16-.52-.24-.85-.05-1.47-.06.66-.27-.28-.77-.15-1.29-.07.27-.36.21-.46.14l.59.92c-.5,0-.38.2-.59.44,1-.18.67.68,1,1.06-.34,0-.68-.07-.6-.53-.75.51,1.18.65.53,1.15,0-.11,0-.17-.12-.22.3.26.06.9-.23.75v-.11c-.12.74,0,2.25.84,2.36a11.21,11.21,0,0,1-1.19-.14l2.86,1.32c-.73-.12-2.47.33-2.89-.29a.61.61,0,0,0,0,.77c.1-.12,1.05-.3,1.12-.14-.81.45-.44.31-1.13.87.16-.18,1.3,0,1.27.3a7.17,7.17,0,0,1-1.25-.08l1.12.71c-.2-.17-.95,0-1.27.13.22-.07,0,.61.09.8l.26-.3c-.17.8,1.58.79,1.52,1.58-.23-.09-1.43-.23-1.57.17.58.18,2.77.82,3.22,1.52l-.33.13.37.54a20.72,20.72,0,0,1-3.4-1.79c-.26.3-.39.09-.36.53-.3.16-.46-.24-.48-.37l-.2,1c.67-.05.67.8,1.23.76l-.69-1.13c.67,0,1.9.65,1.79,1.39-.27.19-1.2-.14-1.42-.13.23.1.44.71.27.77l-.36-.31c-.25.41.9.67.25,1.17,0,.17-.86.51-.46.53a10.22,10.22,0,0,1,3.71-.14,6,6,0,0,1-1.11,1.09c-.6.28-1.43-.42-1.95-.18a.94.94,0,0,1,.48.23c-.15.18-.57-.08-.48.31.68.07-.06.79.57.19.2.38-.14.4-.11.85a2.11,2.11,0,0,1,1.7.78,1.1,1.1,0,0,0-.51.11c-.06.78-.37,1.2-.37,1.92-.17.07-.37.42-.66.27.12.11.35.2.37.43-.59.43-.09-.5-.8-.17.39,0,.54.58.79.9.61-.1.12-.74-.13-1.06a2.52,2.52,0,0,1,2.12,1.32c.21.6-.55.26-.43.36-.14,1.14,1.48,1,.87,1.91-.54.38-1.07,0-1.46.1-.2-.49.34-.75.32-1.09l-.25.42c-.18-.16-.32-.49-.16-.67-.49.31-.1,1.92-.54,2.8.18.15.37.42.58.29L4,464.58c.43-.26.6.52.8.17.3.37.78.79.54,1.31l-.62.1c.18,0,.37-.34.18-.49.28.22-.83.8,0,1l.42-.37c.31.38,1,.84.77,1.3.6-.21-.07-.1.64-.43-.89.28,0-1.19-.89-.73.82-.34.34-.59,1-1-.21,0-.39.16-.29-.23a.76.76,0,0,1-.18-.09l0,0,0,0s0,0,0,0a.7.7,0,0,1-.3.19c-.47-.19-.45-.81-.69-1,.09-.23.23.1.44,0L5.44,464c.45,0,.75-.62,1-.07l0-.49a.76.76,0,0,0,.17-.93c.09-.23-.5-.59-.15-.38l-.28-.77h.11c.06-.76-.74-1.56.07-2.43a1.21,1.21,0,0,1-.12-.95l.39-.08c-.14-.33.38-1,0-1.12,1.05-.36.23-1.6.41-2.17l-.5,0a3,3,0,0,0-.32-1.27l-.45,0c-.37-.43.32-1.1.27-1.77.17,0,.13.22,0,.34,1-.8-.73-1.69,0-2.42a.28.28,0,0,1,0-.44.08.08,0,0,0,0,0,.15.15,0,0,0,0-.07,2.83,2.83,0,0,0,.24-.25.73.73,0,0,0-.24.21,1.55,1.55,0,0,0-.18-.56l.48-.09a.09.09,0,0,0,0-.05c.18-.2-.23-.16-.59-.05a1.28,1.28,0,0,0-.29-.28c.78-.16-.26-.54.57-.77-.41-.14-.31-1-1.16-1.16.11,0,.16-.07.17.05.1-.24.2-.47,0-.68l.61-.09-.83-.51c.38-.31.59-.44,1.07-.13-.73-.74-.28-.6-1-1.23l.4,0c0-.23-.55-.59-.22-.72.75-.5.11-2.48.81-3.77-1.17.25.52-.6-.39-.65.28-.08.44-.26.67-.05-.27-.65.44-1-.32-1.44.28-.07.4.14.57.08-.06-.06-.24-.21-.08-.28s.23.1.35.2c0-.67-.89-.74-1.69-.79.38-.34.33-.51-.2-.75.26-.12.54-.32.63.1,0-.24.38-1.44-.26-1.46.17-.07.05-.33,0-.39a4,4,0,0,0,0-1.09l-.1.14c-.77-.2-.17-.43-.27-.84H4.9c.56-1-.26-.41.37-1.36l-.48.06c-1-.09.61-.84.21-1.39l-.27.2c-.35-.3,1.4-.83,1.53-1.13.09-.07.15.1.21.19.61-.79-.63-.1-.77-.69.34-.1.86.14.92-.25.07-.05,0-.15,0-.27l-.15-.21-.09-.11,0-.06,0,0a1.29,1.29,0,0,1,0-.25,51.59,51.59,0,0,1-.09-9.18c-.26,1.12-.52,2.24-.71-.34-.1-3.95,1-10.68.16-14.25.07-.51.14-.7.2-.72-.21-3-.35-9.81-.8-11.63,1.66-2.79-.8-18.78.73-18.72l-.09-9.29.16.24a44.63,44.63,0,0,0-.63-10.12c.1-1.38.25-.37.33-.26.3-8.68.24-9.54-.52-16.82l.49-.75c-.29-2,.78-12.55.2-21.06a2,2,0,0,1,.22.93c-.58-9.57,1.38-22.93-.43-26.43L5,281.72c-.14,8.17-.78-1.22-1.08,2.14-.11-3.21.54-8.31.63-4.36l-.09.62c.94,1.45.34-10.16,1-9.94-.05-16.09.47-31.77.51-46.84l-.73,1.73,0-5.25c.17-1.38.58-1.85.54,1.9a18.27,18.27,0,0,0-.5-6.4c.29-7.34.85,2.87.87.62l-.06-3.06-.08.69a33.38,33.38,0,0,1-.58-7.21c.15-2.85.45-1.46.48-2.58a5.72,5.72,0,0,0,0-1.73l.06-6.62-.58,2.65c-.28-2.94,0-6.23-.62-3.17,1-4.49.36-24.71.68-27.46a114.76,114.76,0,0,1-.37-13.2c-.12,1.25-.77,2-.69-2.34C5.81,153.5,5.05,144,6,140.47c-.64,3.13-.16-12.33-1.07-7.41.11-3.62.5-.22.82-3-.52-8.61.34-19,.16-29.62-.17-.17-.44,1.61-.7-.67l.87-5.62c-.08-2.1-1-1.93-.4-5.77-.15.54-.37,1.35-.43-.06.86-20.85-.7-42.61.91-63.79-.34,2.87-.37,1-.39-1.23-.08,1.42-.43,0-.67.24l.66-8.86c-.66-1.62,0-9.51-.67-10.43l.11,2.81c-.75-3.74-1.66,5.22-2.62,4.67.85,4.18-1.25,11,0,17.89-.2,1.51-.31-1.29-.53-.48a27.89,27.89,0,0,1,.31,7.72l-.1-.44c.1,10.94-.3,15.62-.57,27.9l.47-.91a37.76,37.76,0,0,1-.33,4.43c.72,3,0-7.41.83-4.65-1,3.5,0,18.61-1.11,21,0,4.06.55-1.19.54,2.87l-.29,1.07.38,1c-.06,2.66-.43,4-.69,4.1,0-.64-.07-1.83-.09-2.53-.35,3.46.12,9.74,0,10.92l.18-3.9c.28,11.08-.11,24.61.49,35.31l.22-.81c.42,8.17-.24,6.55,0,15.52l0-.33a54.55,54.55,0,0,1,.31,6.66c-.26-2.27-.51,4.26-.8,1.29.44,8.86.35,4.38,1.18,10.24L2.5,167a30.06,30.06,0,0,1,.61,6.64c-.32-3.68-.57,2.86-1-1.26-.81,9.41.82,14-.37,18.28,1,4.32.57-8.14.79-5.72.34-2,.77,3.57.67,6.52s-1.32,5.11-1.3,12.67c0-.76-.07-.81-.07-1.56-.26,2.83.36,5.54-.07,9,.63,2,0,4.51.76,5.07l-.18-6.93c.2,3.93,1.13,7.61.68,14.09A32.1,32.1,0,0,1,2.54,220c-.23,1.9.16,3.65-.08,5.61-.79-.56-.17-8.42-.78-12.64-.33,2,.58,8-.28,5.85,1.09,3-.14,7.45.69,12.57l-.47-.34c.07.81.3,2.49.29,4l-.62-2.7c.53,4.15-.46,8-.17,12,0-8.32.57-1.86.92-5.38.63,10.26-1.25,5.9-1,17.39-.07-1.55.29-5.84.51-3.41A62.49,62.49,0,0,1,1,259.35c.1,7.62.49-1.16.78,2.08-.58,2.59.23,3.73.42,7.07l-.48,0c-.31,8.67,1,2.3.63,10.11l-.67-3.3.17,4.07-.55-.84a61.59,61.59,0,0,1,.15,10.15c.34-1,.87.57.89,4.41-.29,2.62-.46-1.47-.39,4a10.18,10.18,0,0,1-.24-4.95c-.15-.24-.3-1.21-.45-1.46a81.72,81.72,0,0,0-.07,9.06,20.06,20.06,0,0,1,.11-2.13l.67,7.9c-.18,1.24-.33.25-.47-.72.05,1.6.27,2.7.31,5.05-.39-.6-.79-.46-1-3.79l.44,7.53c-.17.5-.47,3.86-.62,2.88-.23,4.17.76,10.23.46,15.76a11.47,11.47,0,0,1,.21,2c-.09,5.2-.57,9.8,0,16l-.7,3.5c.16,4.82.89-4.73,1.15,3.3.23,5.69-.6,2.12-.79,4.12a54.67,54.67,0,0,1,.5,13C1.31,372.4,1.41,371,1.36,369.43Zm.31,57.49a1.56,1.56,0,0,1-.21-.26,6.59,6.59,0,0,1,.08-2,4.27,4.27,0,0,1,.33,1.91c0,.23,0,.13,0,.18l-.05.06Zm1.16,9.54c-.16-.09-.08-.23.1-.39A.37.37,0,0,1,2.83,436.46ZM6.19,463h0C6.35,462.75,6.28,462.84,6.19,463Zm-.21.56a.17.17,0,0,0,.2,0c-.12,0-.13-.16-.09-.31C6,463.35,5.87,463.43,6,463.59ZM5.79,203.18l-.13,1C5.53,201.88,5.65,202.53,5.79,203.18Z"/><path class="cls-1" d="M2.17,435.38a.76.76,0,0,1,.26-.06A.2.2,0,0,0,2.17,435.38Z"/><path class="cls-1" d="M1.1,332.42v-.18a.41.41,0,0,0-.09-.18Z"/><path class="cls-1" d="M1.89,454.87a.51.51,0,0,1,.25-.22C2,454.64,1.92,454.69,1.89,454.87Z"/><path class="cls-1" d="M6.8,466.58l-.12-.36c0,.17-.09.23-.16.32C6.63,466.53,6.79,466.47,6.8,466.58Z"/><path class="cls-1" d="M3.82,469.71c.05.05,0,.11.06.16h.23C4.09,469.63,3.91,469.48,3.82,469.71Z"/><path class="cls-1" d="M5.2,466.91c-.41,0-.27.26-.2.51v0C5.57,467.45,5.38,467.18,5.2,466.91Z"/><path class="cls-1" d="M5,467.48a.45.45,0,0,1,0,.23C5.26,467.74,5.08,467.62,5,467.48Z"/><path class="cls-1" d="M6.25,464.31c-.1.12.52.07.35.14C7.12,464.58,6,463.65,6.25,464.31Z"/><polygon class="cls-1" points="3.86 467.12 4.36 467.03 3.96 466.88 3.86 467.12"/><path class="cls-1" d="M4.23,465.12l-.14.41a.18.18,0,0,1,.17.1C4.28,465.38,4.38,465.11,4.23,465.12Z"/><path class="cls-1" d="M4.26,465.63a.4.4,0,0,0,.08.33A.78.78,0,0,0,4.26,465.63Z"/><polygon class="cls-1" points="3.71 466.56 3.81 466.44 3.85 466.16 3.71 466.56"/><path class="cls-1" d="M4.32,460.78l-.14-.44c-.17,0-.28.08-.21.24S4.16,460.85,4.32,460.78Z"/><path class="cls-1" d="M3,462.11c.11-.12.22-.12.38-.19H2.71Z"/><path class="cls-1" d="M2.81,460.83c-.17-.05-.5-.64-.46-.08C2.52,460.79,2.67,461.23,2.81,460.83Z"/><polygon class="cls-1" points="3.59 454.19 3.6 454.3 4.62 454.28 3.59 454.19"/><path class="cls-1" d="M1.16,448.34c-.25.52.63.12.32.59.24.12.25-.38.46-.26C1.68,448.36,1.83,448.19,1.16,448.34Z"/><path class="cls-1" d="M1.94,448.67a1.1,1.1,0,0,0,.15.16A.59.59,0,0,0,1.94,448.67Z"/><polygon class="cls-1" points="6.31 8.78 6.52 5.59 6.18 7.65 6.31 8.78"/><path class="cls-1" d="M5.55,2.66l.65-.75L5.61,0A12.83,12.83,0,0,1,5.55,2.66Z"/><path class="cls-1" d="M.36,427.85l.16,0c.17-.06.18-.13.21-.29Z"/><polygon class="cls-1" points="0.85 394.59 0.83 395.33 1.42 393.94 0.85 394.59"/><path class="cls-1" d="M.1,358.34c0,1.48.11,3.22.08,4.71C.07,359.82.83,357.94.1,358.34Z"/></g></g></svg>